<mxfile host="app.diagrams.net" agent="Mozilla/5.0 (Windows NT 10.0; Win64; x64) AppleWebKit/537.36 (KHTML, like Gecko) Chrome/135.0.0.0 Safari/537.36 Edg/135.0.0.0" version="26.2.12">
  <diagram id="Hq9ktNtWij53IFw4B02Q" name="Página-1">
    <mxGraphModel dx="1659" dy="846" grid="1" gridSize="10" guides="1" tooltips="1" connect="1" arrows="1" fold="1" page="1" pageScale="1" pageWidth="1100" pageHeight="850" math="0" shadow="0">
      <root>
        <mxCell id="0" />
        <mxCell id="1" parent="0" />
        <mxCell id="yZSgtHgCN6FKPr1wLccZ-1" value="Pool" style="swimlane;html=1;childLayout=stackLayout;startSize=20;rounded=0;shadow=0;labelBackgroundColor=none;strokeWidth=1;fontFamily=Verdana;fontSize=8;align=center;" parent="1" vertex="1">
          <mxGeometry x="80" y="50" width="660" height="750" as="geometry" />
        </mxCell>
        <mxCell id="yZSgtHgCN6FKPr1wLccZ-2" value="CLIENTE" style="swimlane;html=1;startSize=20;" parent="yZSgtHgCN6FKPr1wLccZ-1" vertex="1">
          <mxGeometry y="20" width="160" height="730" as="geometry" />
        </mxCell>
        <mxCell id="yZSgtHgCN6FKPr1wLccZ-3" value="chama endpoint de criação de contato com o json ao lado" style="rounded=1;whiteSpace=wrap;html=1;shadow=0;labelBackgroundColor=none;strokeWidth=1;fontFamily=Verdana;fontSize=8;align=center;" parent="yZSgtHgCN6FKPr1wLccZ-2" vertex="1">
          <mxGeometry x="20" y="65" width="100" height="60" as="geometry" />
        </mxCell>
        <mxCell id="yZSgtHgCN6FKPr1wLccZ-4" value="Cliente recebe urlredirect para acessar HubSpot" style="rounded=1;whiteSpace=wrap;html=1;shadow=0;labelBackgroundColor=none;strokeWidth=1;fontFamily=Verdana;fontSize=8;align=center;" parent="yZSgtHgCN6FKPr1wLccZ-2" vertex="1">
          <mxGeometry x="20" y="210" width="100" height="60" as="geometry" />
        </mxCell>
        <mxCell id="yZSgtHgCN6FKPr1wLccZ-10" value="API" style="swimlane;html=1;startSize=20;" parent="yZSgtHgCN6FKPr1wLccZ-1" vertex="1">
          <mxGeometry x="160" y="20" width="180" height="730" as="geometry" />
        </mxCell>
        <mxCell id="yZSgtHgCN6FKPr1wLccZ-11" value="Gera urlRedirec e&amp;nbsp;&lt;div&gt;retorna para CLIENTE&lt;/div&gt;" style="rounded=1;whiteSpace=wrap;html=1;shadow=0;labelBackgroundColor=none;strokeWidth=1;fontFamily=Verdana;fontSize=8;align=center;" parent="yZSgtHgCN6FKPr1wLccZ-10" vertex="1">
          <mxGeometry x="30" y="155" width="100" height="60" as="geometry" />
        </mxCell>
        <mxCell id="yZSgtHgCN6FKPr1wLccZ-12" value="https://urlredirect.com?clientId=**&amp;amp;scope**" style="text;html=1;align=center;verticalAlign=middle;resizable=0;points=[];autosize=1;strokeColor=none;fillColor=none;" parent="yZSgtHgCN6FKPr1wLccZ-10" vertex="1">
          <mxGeometry x="-70" y="288" width="250" height="30" as="geometry" />
        </mxCell>
        <mxCell id="yZSgtHgCN6FKPr1wLccZ-8" value="validação e conversão ok?" style="rhombus;whiteSpace=wrap;html=1;" parent="yZSgtHgCN6FKPr1wLccZ-10" vertex="1">
          <mxGeometry y="530" width="120" height="100" as="geometry" />
        </mxCell>
        <mxCell id="yZSgtHgCN6FKPr1wLccZ-9" value="Gera exceção e&amp;nbsp;&lt;div&gt;interrompe o fluxo&lt;/div&gt;" style="rounded=1;whiteSpace=wrap;html=1;" parent="yZSgtHgCN6FKPr1wLccZ-10" vertex="1">
          <mxGeometry y="650" width="120" height="60" as="geometry" />
        </mxCell>
        <mxCell id="yZSgtHgCN6FKPr1wLccZ-7" style="edgeStyle=orthogonalEdgeStyle;rounded=0;orthogonalLoop=1;jettySize=auto;html=1;exitX=0.5;exitY=1;exitDx=0;exitDy=0;" parent="yZSgtHgCN6FKPr1wLccZ-10" source="yZSgtHgCN6FKPr1wLccZ-8" target="yZSgtHgCN6FKPr1wLccZ-9" edge="1">
          <mxGeometry relative="1" as="geometry" />
        </mxCell>
        <mxCell id="yZSgtHgCN6FKPr1wLccZ-25" value="NAO" style="text;html=1;align=center;verticalAlign=middle;resizable=0;points=[];autosize=1;strokeColor=none;fillColor=none;" parent="yZSgtHgCN6FKPr1wLccZ-10" vertex="1">
          <mxGeometry x="55" y="620" width="50" height="30" as="geometry" />
        </mxCell>
        <mxCell id="yZSgtHgCN6FKPr1wLccZ-13" value="HUBSPOT" style="swimlane;html=1;startSize=20;" parent="yZSgtHgCN6FKPr1wLccZ-1" vertex="1">
          <mxGeometry x="340" y="20" width="160" height="730" as="geometry" />
        </mxCell>
        <mxCell id="yZSgtHgCN6FKPr1wLccZ-14" value="Cliente autentica&amp;nbsp;&lt;div&gt;e&lt;/div&gt;&lt;div&gt;autoriza na HubSpot&lt;/div&gt;" style="rounded=1;whiteSpace=wrap;html=1;shadow=0;labelBackgroundColor=none;strokeWidth=1;fontFamily=Verdana;fontSize=8;align=center;" parent="yZSgtHgCN6FKPr1wLccZ-13" vertex="1">
          <mxGeometry x="30" y="280" width="100" height="60" as="geometry" />
        </mxCell>
        <mxCell id="yZSgtHgCN6FKPr1wLccZ-15" style="edgeStyle=orthogonalEdgeStyle;rounded=1;html=1;labelBackgroundColor=none;startArrow=none;startFill=0;startSize=5;endArrow=classicThin;endFill=1;endSize=5;jettySize=auto;orthogonalLoop=1;strokeColor=#000000;strokeWidth=1;fontFamily=Verdana;fontSize=8;fontColor=#000000;entryX=0.5;entryY=0;entryDx=0;entryDy=0;" parent="yZSgtHgCN6FKPr1wLccZ-13" source="yZSgtHgCN6FKPr1wLccZ-14" target="yZSgtHgCN6FKPr1wLccZ-16" edge="1">
          <mxGeometry relative="1" as="geometry">
            <mxPoint x="80" y="365" as="targetPoint" />
          </mxGeometry>
        </mxCell>
        <mxCell id="yZSgtHgCN6FKPr1wLccZ-16" value="HubSpot retorna a&amp;nbsp;&lt;div&gt;url de callback para&lt;/div&gt;&lt;div&gt;API&lt;/div&gt;" style="rounded=1;whiteSpace=wrap;html=1;shadow=0;labelBackgroundColor=none;strokeWidth=1;fontFamily=Verdana;fontSize=8;align=center;" parent="yZSgtHgCN6FKPr1wLccZ-13" vertex="1">
          <mxGeometry x="30" y="380" width="100" height="60" as="geometry" />
        </mxCell>
        <mxCell id="yZSgtHgCN6FKPr1wLccZ-26" value="https:://callbackuri.com?code=123" style="text;html=1;align=center;verticalAlign=middle;resizable=0;points=[];autosize=1;strokeColor=none;fillColor=none;" parent="yZSgtHgCN6FKPr1wLccZ-13" vertex="1">
          <mxGeometry x="-70" y="460" width="210" height="30" as="geometry" />
        </mxCell>
        <mxCell id="yZSgtHgCN6FKPr1wLccZ-17" value="BASE" style="swimlane;html=1;startSize=20;" parent="yZSgtHgCN6FKPr1wLccZ-1" vertex="1">
          <mxGeometry x="500" y="20" width="160" height="730" as="geometry" />
        </mxCell>
        <mxCell id="yZSgtHgCN6FKPr1wLccZ-18" value="Salva token na base" style="rounded=1;whiteSpace=wrap;html=1;" parent="yZSgtHgCN6FKPr1wLccZ-17" vertex="1">
          <mxGeometry x="20" y="550" width="120" height="60" as="geometry" />
        </mxCell>
        <mxCell id="yZSgtHgCN6FKPr1wLccZ-19" style="edgeStyle=orthogonalEdgeStyle;rounded=0;orthogonalLoop=1;jettySize=auto;html=1;exitX=1;exitY=0.5;exitDx=0;exitDy=0;entryX=0.5;entryY=0;entryDx=0;entryDy=0;" parent="yZSgtHgCN6FKPr1wLccZ-1" source="yZSgtHgCN6FKPr1wLccZ-3" target="yZSgtHgCN6FKPr1wLccZ-11" edge="1">
          <mxGeometry relative="1" as="geometry" />
        </mxCell>
        <mxCell id="yZSgtHgCN6FKPr1wLccZ-20" style="edgeStyle=orthogonalEdgeStyle;rounded=0;orthogonalLoop=1;jettySize=auto;html=1;exitX=0;exitY=0.5;exitDx=0;exitDy=0;entryX=0.5;entryY=0;entryDx=0;entryDy=0;" parent="yZSgtHgCN6FKPr1wLccZ-1" source="yZSgtHgCN6FKPr1wLccZ-11" target="yZSgtHgCN6FKPr1wLccZ-4" edge="1">
          <mxGeometry relative="1" as="geometry" />
        </mxCell>
        <mxCell id="yZSgtHgCN6FKPr1wLccZ-21" style="edgeStyle=orthogonalEdgeStyle;rounded=0;orthogonalLoop=1;jettySize=auto;html=1;exitX=0.5;exitY=1;exitDx=0;exitDy=0;entryX=0;entryY=0.5;entryDx=0;entryDy=0;" parent="yZSgtHgCN6FKPr1wLccZ-1" source="yZSgtHgCN6FKPr1wLccZ-4" target="yZSgtHgCN6FKPr1wLccZ-14" edge="1">
          <mxGeometry relative="1" as="geometry" />
        </mxCell>
        <mxCell id="yZSgtHgCN6FKPr1wLccZ-23" style="edgeStyle=orthogonalEdgeStyle;rounded=0;orthogonalLoop=1;jettySize=auto;html=1;exitX=1;exitY=0.5;exitDx=0;exitDy=0;entryX=0;entryY=0.5;entryDx=0;entryDy=0;" parent="yZSgtHgCN6FKPr1wLccZ-1" source="yZSgtHgCN6FKPr1wLccZ-8" target="yZSgtHgCN6FKPr1wLccZ-18" edge="1">
          <mxGeometry relative="1" as="geometry" />
        </mxCell>
        <mxCell id="yZSgtHgCN6FKPr1wLccZ-24" value="SIM" style="text;html=1;align=center;verticalAlign=middle;resizable=0;points=[];autosize=1;strokeColor=none;fillColor=none;" parent="1" vertex="1">
          <mxGeometry x="370" y="618" width="40" height="30" as="geometry" />
        </mxCell>
        <mxCell id="yZSgtHgCN6FKPr1wLccZ-6" value="API recebe callback&amp;nbsp;&lt;div&gt;e faz valicação junto&lt;/div&gt;&lt;div&gt;com a conversão do&amp;nbsp;&lt;/div&gt;&lt;div&gt;tokenExchange&lt;/div&gt;" style="rounded=1;whiteSpace=wrap;html=1;shadow=0;labelBackgroundColor=none;strokeWidth=1;fontFamily=Verdana;fontSize=8;align=center;" parent="1" vertex="1">
          <mxGeometry x="250" y="500" width="100" height="60" as="geometry" />
        </mxCell>
        <mxCell id="yZSgtHgCN6FKPr1wLccZ-22" style="edgeStyle=orthogonalEdgeStyle;rounded=0;orthogonalLoop=1;jettySize=auto;html=1;exitX=0.5;exitY=1;exitDx=0;exitDy=0;entryX=1;entryY=0.5;entryDx=0;entryDy=0;" parent="1" source="yZSgtHgCN6FKPr1wLccZ-16" target="yZSgtHgCN6FKPr1wLccZ-6" edge="1">
          <mxGeometry relative="1" as="geometry" />
        </mxCell>
        <mxCell id="yZSgtHgCN6FKPr1wLccZ-5" style="edgeStyle=orthogonalEdgeStyle;rounded=0;orthogonalLoop=1;jettySize=auto;html=1;exitX=0.5;exitY=1;exitDx=0;exitDy=0;entryX=0.5;entryY=0;entryDx=0;entryDy=0;" parent="1" source="yZSgtHgCN6FKPr1wLccZ-6" target="yZSgtHgCN6FKPr1wLccZ-8" edge="1">
          <mxGeometry relative="1" as="geometry" />
        </mxCell>
      </root>
    </mxGraphModel>
  </diagram>
</mxfile>
